<svg width="67" height="65" viewBox="0 0 67 65" fill="none" xmlns="http://www.w3.org/2000/svg">
<path d="M39.5698 25.9692V5.52712C39.5698 2.47577 37.0625 0 33.9666 0C30.8732 0 28.3633 2.47325 28.3633 5.52712V25.9692H19.7839C8.69971 25.9692 -0.256829 34.9624 0.00562441 45.9538C0.247693 56.1509 8.56211 64.5333 18.8921 64.9807C29.9304 65.4583 39.0755 57.0105 39.5443 46.3408H39.5698V37.0209H67V25.9692H39.5698ZM28.3531 46.0794C28.0346 50.6162 24.0978 54.1703 19.3686 53.9516C14.9221 53.7455 11.3268 50.1286 11.1968 45.7401C11.0567 40.9444 14.9553 37.0133 19.7839 37.0133H28.3633V44.8177C28.3608 44.8428 28.3531 44.8704 28.3506 44.8956C28.3302 45.0916 28.3174 45.2877 28.3174 45.4888C28.3174 45.6898 28.3276 45.8884 28.3506 46.0819L28.3531 46.0794Z" fill="#9E9E9E"/>
</svg>
