<svg width="20" height="24" viewBox="0 0 20 24" fill="none" xmlns="http://www.w3.org/2000/svg">
<path d="M2.01937 23.25C1.44396 23.25 0.963542 23.0573 0.578125 22.6719C0.192708 22.2864 0 21.806 0 21.2306V5.26936C0 4.69394 0.192708 4.21353 0.578125 3.82811C0.963542 3.44269 1.44396 3.24998 2.01937 3.24998H4.23063V0.461548H5.57687V3.24998H14.5194V0.461548H15.7694V3.24998H17.9806C18.556 3.24998 19.0365 3.44269 19.4219 3.82811C19.8073 4.21353 20 4.69394 20 5.26936V21.2306C20 21.806 19.8073 22.2864 19.4219 22.6719C19.0365 23.0573 18.556 23.25 17.9806 23.25H2.01937ZM2.01937 22H17.9806C18.1731 22 18.3495 21.9199 18.5097 21.7597C18.6699 21.5995 18.75 21.4231 18.75 21.2306V10.2694H1.25V21.2306C1.25 21.4231 1.3301 21.5995 1.49031 21.7597C1.65052 21.9199 1.82687 22 2.01937 22ZM1.25 9.01905H18.75V5.26936C18.75 5.07686 18.6699 4.90051 18.5097 4.7403C18.3495 4.58009 18.1731 4.49998 17.9806 4.49998H2.01937C1.82687 4.49998 1.65052 4.58009 1.49031 4.7403C1.3301 4.90051 1.25 5.07686 1.25 5.26936V9.01905ZM10 14.6922C9.74208 14.6922 9.51729 14.5964 9.32563 14.405C9.13417 14.2135 9.03844 13.9887 9.03844 13.7306C9.03844 13.4727 9.13417 13.248 9.32563 13.0565C9.51729 12.8651 9.74208 12.7694 10 12.7694C10.2579 12.7694 10.4827 12.8651 10.6744 13.0565C10.8658 13.248 10.9616 13.4727 10.9616 13.7306C10.9616 13.9887 10.8658 14.2135 10.6744 14.405C10.4827 14.5964 10.2579 14.6922 10 14.6922ZM5 14.6922C4.74208 14.6922 4.51729 14.5964 4.32563 14.405C4.13417 14.2135 4.03844 13.9887 4.03844 13.7306C4.03844 13.4727 4.13417 13.248 4.32563 13.0565C4.51729 12.8651 4.74208 12.7694 5 12.7694C5.25792 12.7694 5.48271 12.8651 5.67437 13.0565C5.86583 13.248 5.96156 13.4727 5.96156 13.7306C5.96156 13.9887 5.86583 14.2135 5.67437 14.405C5.48271 14.5964 5.25792 14.6922 5 14.6922ZM15 14.6922C14.7421 14.6922 14.5173 14.5964 14.3256 14.405C14.1342 14.2135 14.0384 13.9887 14.0384 13.7306C14.0384 13.4727 14.1342 13.248 14.3256 13.0565C14.5173 12.8651 14.7421 12.7694 15 12.7694C15.2579 12.7694 15.4827 12.8651 15.6744 13.0565C15.8658 13.248 15.9616 13.4727 15.9616 13.7306C15.9616 13.9887 15.8658 14.2135 15.6744 14.405C15.4827 14.5964 15.2579 14.6922 15 14.6922ZM10 19.5C9.74208 19.5 9.51729 19.4043 9.32563 19.2128C9.13417 19.0213 9.03844 18.7965 9.03844 18.5384C9.03844 18.2805 9.13417 18.0557 9.32563 17.864C9.51729 17.6726 9.74208 17.5769 10 17.5769C10.2579 17.5769 10.4827 17.6726 10.6744 17.864C10.8658 18.0557 10.9616 18.2805 10.9616 18.5384C10.9616 18.7965 10.8658 19.0213 10.6744 19.2128C10.4827 19.4043 10.2579 19.5 10 19.5ZM5 19.5C4.74208 19.5 4.51729 19.4043 4.32563 19.2128C4.13417 19.0213 4.03844 18.7965 4.03844 18.5384C4.03844 18.2805 4.13417 18.0557 4.32563 17.864C4.51729 17.6726 4.74208 17.5769 5 17.5769C5.25792 17.5769 5.48271 17.6726 5.67437 17.864C5.86583 18.0557 5.96156 18.2805 5.96156 18.5384C5.96156 18.7965 5.86583 19.0213 5.67437 19.2128C5.48271 19.4043 5.25792 19.5 5 19.5ZM15 19.5C14.7421 19.5 14.5173 19.4043 14.3256 19.2128C14.1342 19.0213 14.0384 18.7965 14.0384 18.5384C14.0384 18.2805 14.1342 18.0557 14.3256 17.864C14.5173 17.6726 14.7421 17.5769 15 17.5769C15.2579 17.5769 15.4827 17.6726 15.6744 17.864C15.8658 18.0557 15.9616 18.2805 15.9616 18.5384C15.9616 18.7965 15.8658 19.0213 15.6744 19.2128C15.4827 19.4043 15.2579 19.5 15 19.5Z" fill="black"/>
</svg>
