<svg width="1920" height="331" viewBox="0 0 1920 331" fill="none" xmlns="http://www.w3.org/2000/svg">
<rect width="1920" height="331" fill="url(#paint0_linear_2209_2)"/>
<path d="M120.297 114.062V148H113.219V120.766H113.031L105.25 125.641V119.406L113.641 114.062H120.297ZM162.484 109.703V140.359H156.484V109.703H162.484ZM163.609 146.781V151.562H133.891V137.266H139.938V146.781H163.609ZM139.094 112.422C145.656 112.422 150.766 116.922 150.766 123.156C150.766 129.531 145.656 133.984 139.094 133.984C132.531 133.984 127.422 129.531 127.422 123.156C127.422 116.922 132.531 112.422 139.094 112.422ZM139.094 117.625C135.766 117.578 133.234 119.688 133.281 123.156C133.234 126.719 135.766 128.781 139.094 128.781C142.328 128.781 144.859 126.719 144.859 123.156C144.859 119.688 142.328 117.578 139.094 117.625ZM214.703 113.359V117.531C214.656 122.734 214.656 128.594 213.109 137.172L207.25 136.656C208.656 128.852 208.703 123.039 208.703 118.094H183.156V113.359H214.703ZM218.219 142.234V147.109H179.312V142.234H187.609V128.828H193.562V142.234H198.25V128.828H204.156V142.234H218.219ZM259.703 129.578V134.312H250.328V138.297H254.969V152.312H249.016V142.984H225.109V138.297H229.984V134.312H220.797V129.578H259.703ZM240.25 110.5C249.625 110.453 255.719 113.688 255.766 118.891C255.719 124.094 249.625 127.328 240.25 127.328C230.828 127.328 224.688 124.094 224.688 118.891C224.688 113.688 230.828 110.453 240.25 110.5ZM240.25 115.141C234.297 115.141 230.875 116.453 230.922 118.891C230.875 121.422 234.297 122.688 240.25 122.688C246.156 122.688 249.578 121.422 249.578 118.891C249.578 116.453 246.156 115.141 240.25 115.141ZM236.031 138.297H244.422V134.312H236.031V138.297ZM278.031 121.281C277.984 127.797 281.453 135.297 288.484 138.531L285.156 143.219C280.398 141.039 277 136.68 275.125 131.547C273.203 137.195 269.711 141.977 264.766 144.297L261.297 139.562C268.422 136.234 271.984 128.312 272.031 121.281V118.656H262.984V113.781H286.609V118.656H278.031V121.281ZM295.938 109.656V125.922H302.219V130.938H295.938V152.312H289.938V109.656H295.938ZM342.766 128.781V133.234H303.719V128.781H342.766ZM338.078 135.344V145.422H314.172V147.859H339.344V151.938H308.219V141.625H332.172V139.469H308.172V135.344H338.078ZM338.031 110.406V120.438H314.547V122.734H338.781V126.766H308.594V116.641H332.031V114.484H308.5V110.406H338.031ZM370.234 111.438C376.75 111.391 381.484 115.094 381.484 120.484C381.484 125.828 376.75 129.578 370.234 129.531C363.719 129.578 358.984 125.828 359.031 120.484C358.984 115.094 363.719 111.391 370.234 111.438ZM370.234 116.219C367.047 116.219 364.797 117.766 364.797 120.484C364.797 123.156 367.047 124.703 370.234 124.656C373.516 124.703 375.812 123.156 375.812 120.484C375.812 117.766 373.516 116.219 370.234 116.219ZM392.266 109.703V152.312H386.359V109.703H392.266ZM356.406 132.156C363.953 132.156 374.688 131.969 383.781 130.609L384.156 135.016C380.641 135.719 377.031 136.164 373.469 136.422V151.047H367.516V136.797C363.766 136.961 360.227 136.984 357.156 137.031L356.406 132.156ZM431.641 109.703V122.781H437.406V127.656H431.641V141.531H425.641V109.703H431.641ZM423.109 114.156V118.891H397.797V114.156H407.5V109.609H413.453V114.156H423.109ZM410.453 120.391C416.641 120.391 420.953 123.719 420.953 128.641C420.953 133.562 416.641 136.797 410.453 136.797C404.219 136.797 399.859 133.562 399.859 128.641C399.859 123.719 404.219 120.391 410.453 120.391ZM410.453 124.938C407.594 124.984 405.672 126.297 405.719 128.641C405.672 130.984 407.594 132.25 410.453 132.25C413.312 132.25 415.281 130.984 415.281 128.641C415.281 126.297 413.312 124.984 410.453 124.938ZM433.188 146.781V151.562H403.984V139.094H409.938V146.781H433.188ZM489.25 131.641V136.422H450.344V131.641H466.75V128.219C459.062 127.586 454.234 124.398 454.234 119.453C454.234 114.109 460.375 110.734 469.797 110.734C479.125 110.734 485.266 114.109 485.312 119.453C485.266 124.422 480.391 127.609 472.75 128.219V131.641H489.25ZM484.844 146.781V151.562H455.031V139.094H461.031V146.781H484.844ZM469.797 115.469C463.891 115.469 460.422 116.922 460.469 119.453C460.422 122.219 463.891 123.531 469.797 123.531C475.703 123.531 479.125 122.219 479.125 119.453C479.125 116.922 475.703 115.469 469.797 115.469ZM525.484 109.656V125.781H531.766V130.703H525.484V152.406H519.578V109.656H525.484ZM513.297 113.219V129.766H499.562V137.5C505.773 137.477 510.906 137.195 516.578 136.234L517.094 141.016C510.578 142.188 504.719 142.469 497.219 142.469H493.609V125.031H507.344V118.047H493.562V113.219H513.297ZM569.031 109.703V140.359H563.031V109.703H569.031ZM570.156 146.781V151.562H540.438V137.266H546.484V146.781H570.156ZM545.641 112.422C552.203 112.422 557.312 116.922 557.312 123.156C557.312 129.531 552.203 133.984 545.641 133.984C539.078 133.984 533.969 129.531 533.969 123.156C533.969 116.922 539.078 112.422 545.641 112.422ZM545.641 117.625C542.312 117.578 539.781 119.688 539.828 123.156C539.781 126.719 542.312 128.781 545.641 128.781C548.875 128.781 551.406 126.719 551.406 123.156C551.406 119.688 548.875 117.578 545.641 117.625ZM621.25 113.359V117.531C621.203 122.734 621.203 128.594 619.656 137.172L613.797 136.656C615.203 128.852 615.25 123.039 615.25 118.094H589.703V113.359H621.25ZM624.766 142.234V147.109H585.859V142.234H594.156V128.828H600.109V142.234H604.797V128.828H610.703V142.234H624.766ZM666.25 129.578V134.312H656.875V138.297H661.516V152.312H655.562V142.984H631.656V138.297H636.531V134.312H627.344V129.578H666.25ZM646.797 110.5C656.172 110.453 662.266 113.688 662.312 118.891C662.266 124.094 656.172 127.328 646.797 127.328C637.375 127.328 631.234 124.094 631.234 118.891C631.234 113.688 637.375 110.453 646.797 110.5ZM646.797 115.141C640.844 115.141 637.422 116.453 637.469 118.891C637.422 121.422 640.844 122.688 646.797 122.688C652.703 122.688 656.125 121.422 656.125 118.891C656.125 116.453 652.703 115.141 646.797 115.141ZM642.578 138.297H650.969V134.312H642.578V138.297ZM702.25 122.5V127.094H718.797V131.828H679.891V127.094H696.344V122.5H702.25ZM702.344 110.922C702.344 115.469 706.938 119.547 716.734 120.438L714.672 124.984C707.359 124.094 701.992 121.539 699.25 117.625C696.531 121.539 691.164 124.094 683.828 124.984L681.766 120.438C691.562 119.547 696.25 115.469 696.25 110.922V110.031H702.344V110.922ZM714.062 133.984V145H690.297V147.531H715.188V152.031H684.438V140.781H708.156V138.531H684.391V133.984H714.062ZM755.875 110.969V123.672H732.016V127.234H756.859V132.016H725.969V119.172H749.734V115.797H725.828V110.969H755.875ZM760.375 135.203V139.984H743.781V152.406H737.781V139.984H721.328V135.203H760.375ZM778.844 117.016C778.844 122.922 781.75 128.781 788.5 131.266L785.172 135.906C780.695 134.148 777.625 130.797 775.891 126.578C774.016 131.078 770.711 134.594 765.859 136.422L762.672 131.734C769.656 129.25 772.797 123.25 772.797 117.016V112.094H778.844V117.016ZM798.812 109.703V141.344H792.859V128.312H785.547V123.484H792.859V120.062H785.547V115.234H792.859V109.703H798.812ZM799.703 146.781V151.562H770.406V138.297H776.453V146.781H799.703ZM106.469 218V192.547H109.656V218H106.469ZM108.109 188.188C106.844 188.188 105.766 187.203 105.766 185.984C105.766 184.766 106.844 183.734 108.109 183.734C109.375 183.734 110.453 184.766 110.453 185.984C110.453 187.203 109.375 188.188 108.109 188.188ZM126.812 192.547V195.266H121.469V211.203C121.469 214.438 123.25 215.328 125.172 215.328C125.828 215.328 126.766 215.234 127.281 215.234V218.234C126.766 218.281 125.969 218.375 124.891 218.375C121.562 218.375 118.234 216.219 118.234 212V195.266H114.438V192.547H118.234V186.453H121.469V192.547H126.812ZM141.484 218.516C135.25 218.516 130.984 213.266 130.984 205.344C130.984 197.422 135.25 192.172 141.531 192.172C146.219 192.172 148.281 195.125 149.266 197.281H149.5V184.062H152.734V218H149.594V213.406H149.266C148.234 215.609 146.125 218.516 141.484 218.516ZM141.906 215.656C146.781 215.656 149.594 211.344 149.594 205.297C149.594 199.297 146.828 195.078 141.906 195.078C136.891 195.078 134.219 199.531 134.219 205.297C134.219 211.109 136.938 215.656 141.906 215.656ZM159.531 210.875C159.531 205.719 163.703 203.75 168.906 203.328C170.594 203.211 174.719 202.977 175.938 202.906V200.516C175.938 197.094 173.734 195.031 169.75 195.031C166.422 195.031 164.172 196.578 163.562 198.875H160.234C160.75 194.844 164.641 192.172 169.938 192.172C173.734 192.172 179.125 193.812 179.125 200.797V218H175.938V214.062H175.75C174.719 216.266 172.188 218.562 167.922 218.562C163.281 218.562 159.531 215.797 159.531 210.875ZM162.719 211.016C162.719 214.016 165.109 215.703 168.391 215.703C173.078 215.703 175.938 212.328 175.938 208.297V205.578L169.375 206.047C164.875 206.375 162.719 208.109 162.719 211.016ZM196.938 183.078C203.266 183.078 207.812 186.922 207.859 192.641C207.812 197.891 203.969 201.523 198.438 202.062V209.562C202.492 209.422 206.57 209.117 210.344 208.625L210.578 210.875C201.719 212.328 191.828 212.469 184.469 212.422L183.906 209.891C187.352 209.867 191.336 209.844 195.484 209.703V202.062C189.812 201.57 185.969 197.914 186.016 192.641C185.969 186.922 190.469 183.078 196.938 183.078ZM196.938 185.609C192.25 185.656 188.875 188.562 188.875 192.641C188.875 196.719 192.25 199.672 196.938 199.625C201.578 199.672 204.906 196.719 204.953 192.641C204.906 188.562 201.578 185.656 196.938 185.609ZM216.062 180.312V197.656H223.188V200.188H216.062V221.656H213.156V180.312H216.062ZM269.688 180.312V191.562H276.062V194.141H269.688V205.203H266.734V180.312H269.688ZM269.688 207.734V221.047H243.859V207.734H269.688ZM246.719 210.125V218.609H266.734V210.125H246.719ZM262.281 184.906V187.391H237.625V184.906H248.5V179.938H251.406V184.906H262.281ZM249.953 189.734C255.859 189.734 259.797 192.641 259.797 197.094C259.797 201.594 255.859 204.406 249.953 204.406C243.953 204.406 240.062 201.594 240.062 197.094C240.062 192.641 243.953 189.734 249.953 189.734ZM249.953 192.078C245.688 192.078 242.828 194.141 242.875 197.094C242.828 200.094 245.688 202.062 249.953 202.109C254.172 202.062 256.984 200.094 257.031 197.094C256.984 194.141 254.172 192.078 249.953 192.078ZM289.281 185.375C289.234 193.531 287.922 203.469 281.688 211.438L279.297 209.984C284.781 203.492 286.398 195.312 286.656 187.859H279.953V185.375H289.281ZM298.422 185.375C298.398 188.633 298.305 192.617 297.719 196.812H303.906V181.484H306.719V219.453H303.906V199.297H297.297C296.312 204.5 294.461 209.844 290.922 214.391L288.578 212.938C294.672 205.531 295.656 195.289 295.797 187.859H290.641V185.375H298.422ZM314.312 180.312V221.656H311.453V180.312H314.312ZM370.844 197.094V199.625H363.859V221.656H360.906V180.312H363.859V197.094H370.844ZM336.766 184.391V208.484H337.047C343.281 208.531 349.516 208.062 356.547 206.562L356.922 209.141C349.75 210.594 343.422 211.016 337.047 211.016H333.859V184.391H336.766ZM387.062 183.406C393.578 183.406 398.078 187.297 398.125 192.969C398.078 198.688 393.578 202.531 387.062 202.531C380.594 202.531 376 198.688 376 192.969C376 187.297 380.594 183.406 387.062 183.406ZM387.062 186.031C382.328 186.031 378.859 188.938 378.906 192.969C378.859 197 382.328 199.953 387.062 199.906C391.797 199.953 395.219 197 395.219 192.969C395.219 188.938 391.797 186.031 387.062 186.031ZM407.172 180.312V221.703H404.219V180.312H407.172ZM373.75 209.75C381.484 209.797 392.078 209.75 401.359 208.344L401.594 210.594C392.031 212.375 381.719 212.375 374.219 212.375L373.75 209.75ZM440.312 189.125C440.312 194.516 444.859 199.391 450.766 201.312L449.266 203.656C444.578 202.039 440.711 198.664 438.953 194.375C437.219 199.203 433.234 202.953 428.406 204.781L426.859 202.391C432.766 200.328 437.406 195.078 437.406 189.125V187.906H427.75V185.422H437.406V180.125H440.406V185.422H449.969V187.906H440.312V189.125ZM460.703 180.312V209.141H457.703V194.797H448.656V192.266H457.703V180.312H460.703ZM448.984 207.172C448.984 213.5 456.438 217.859 463.328 219.078L462.062 221.469C456.016 220.297 449.852 216.969 447.484 211.812C445.047 216.945 438.836 220.297 432.812 221.469L431.641 219.078C438.438 217.859 445.938 213.406 445.984 207.172V206.141H448.984V207.172ZM512.5 184.672V189.453C512.5 194.844 512.5 200.047 511.047 207.547L508.141 207.172C509.594 200.047 509.594 194.703 509.641 189.453V187.156H483.672V184.672H512.5ZM517.328 212.984V215.516H479.641V212.984H489.391V199.156H492.344V212.984H499.75V199.156H502.656V212.984H517.328ZM558.812 200.422V202.906H548.453V208.625H554.078V221.656H551.125V211.016H525.297V208.625H531.484V202.906H521.125V200.422H558.812ZM539.922 181.344C548.875 181.297 554.406 184.203 554.406 189.172C554.406 194.094 548.875 197 539.922 196.953C531.016 197 525.438 194.094 525.438 189.172C525.438 184.203 531.016 181.297 539.922 181.344ZM539.922 183.734C532.938 183.734 528.438 185.844 528.484 189.172C528.438 192.5 532.938 194.609 539.922 194.609C546.859 194.609 551.406 192.5 551.406 189.172C551.406 185.844 546.859 183.734 539.922 183.734ZM534.438 208.625H545.547V202.906H534.438V208.625ZM581.406 181.062C590.5 181.062 595.891 183.594 595.891 188.234C595.891 192.922 590.5 195.5 581.406 195.5C572.312 195.5 566.922 192.922 566.922 188.234C566.922 183.594 572.312 181.062 581.406 181.062ZM581.406 183.359C574.328 183.359 569.969 185.234 569.969 188.234C569.969 191.375 574.328 193.203 581.406 193.203C588.531 193.203 592.891 191.375 592.891 188.234C592.891 185.234 588.531 183.359 581.406 183.359ZM600.297 198.594V201.031H562.609V198.594H600.297ZM595.328 204.969V213.828H570.25V218.703H596.641V221.141H567.391V211.531H592.469V207.312H567.25V204.969H595.328ZM629.922 191.984C629.875 199.484 635.547 207.078 641.359 209.797L639.531 212.141C634.867 209.797 630.414 204.664 628.469 198.547C626.57 204.969 622.164 210.43 617.453 212.891L615.531 210.406C621.344 207.641 626.969 199.766 626.969 191.984V184.016H629.922V191.984ZM649.609 180.312V221.703H646.656V180.312H649.609ZM670.75 188.188C670.75 193.906 675.203 198.922 681.109 200.984L679.609 203.328C674.898 201.594 671.102 198.102 669.344 193.672C667.609 198.57 663.602 202.32 658.75 204.172L657.156 201.875C663.156 199.672 667.844 194.375 667.891 188.234V185.844H658.141V183.359H680.359V185.844H670.75V188.188ZM689.359 180.312V191.516H695.734V194.094H689.359V205.203H686.406V180.312H689.359ZM689.359 207.547V221.656H686.406V210.031H662.5V207.547H689.359ZM719.547 187.719V190.156H698.547V187.719H707.547V181.578H710.547V187.719H719.547ZM709.047 193.25C714.203 193.297 717.906 197.094 717.906 202.531C717.906 208.016 714.203 211.859 709.047 211.859C703.891 211.859 700.188 208.016 700.188 202.531C700.188 197.094 703.891 193.297 709.047 193.25ZM709.047 195.781C705.438 195.828 702.812 198.734 702.859 202.531C702.812 206.375 705.438 209.281 709.047 209.234C712.609 209.281 715.234 206.375 715.281 202.531C715.234 198.734 712.609 195.828 709.047 195.781ZM733.703 180.312V221.656H730.891V200.422H724.656V219.547H721.891V181.344H724.656V197.938H730.891V180.312H733.703ZM778 213.688V216.219H740.125V213.688H757.469V204.359H744.719V183.312H747.719V191.094H770.312V183.312H773.219V204.359H760.422V213.688H778ZM747.719 201.875H770.312V193.578H747.719V201.875ZM793.562 192.5C793.562 199.016 797.219 206.188 802.656 209.328L800.875 211.625C796.797 209.164 793.68 204.523 792.203 199.297C790.703 204.992 787.375 209.914 783.203 212.469L781.234 210.266C786.812 207.078 790.703 199.719 790.75 192.594V184.297H793.562V192.5ZM816.906 180.312V221.656H814.047V180.312H816.906ZM808.375 181.25V219.5H805.562V197.984H798.016V195.406H805.562V181.25H808.375ZM860.969 213.641V216.172H823.094V213.641H832.75V202.156C829.117 200.328 826.938 197.352 826.938 193.625C826.938 187.25 833.125 183.125 841.891 183.078C850.703 183.125 856.891 187.25 856.891 193.625C856.891 197.305 854.758 200.258 851.219 202.062V213.641H860.969ZM841.891 185.562C834.859 185.516 829.75 188.797 829.75 193.625C829.75 198.359 834.859 201.688 841.891 201.641C848.922 201.688 854.078 198.359 854.078 193.625C854.078 188.797 848.922 185.516 841.891 185.562ZM835.656 213.641H848.266V203.188C846.367 203.75 844.211 204.031 841.891 204.031C839.617 204.031 837.508 203.75 835.656 203.234V213.641Z" fill="white"/>
<path d="M60.2368 103C57.2835 103 54.99 101.887 53.3563 99.6621C51.7854 97.3733 51 94.1626 51 90.03C51 85.1344 52.1939 80.8747 54.5816 77.2507C56.9693 73.5631 60.5195 70.4796 65.2322 68L68.4368 74.1989C65.3579 75.852 63.033 77.7593 61.4621 79.921C59.954 82.0827 59.2 84.753 59.2 87.9319L59.8598 96.7057L54.8644 89.9346C55.6812 89.2352 56.5295 88.6948 57.4092 88.3134C58.2889 87.8683 59.2314 87.6458 60.2368 87.6458C62.3103 87.6458 64.0697 88.3134 65.5149 89.6485C66.9602 90.9201 67.6828 92.7003 67.6828 94.9891C67.6828 97.4051 66.9916 99.3442 65.6092 100.807C64.2268 102.269 62.436 103 60.2368 103ZM83.8 103C80.8467 103 78.5533 101.887 76.9195 99.6621C75.3487 97.3733 74.5632 94.1626 74.5632 90.03C74.5632 85.1344 75.7571 80.8747 78.1448 77.2507C80.5326 73.5631 84.0828 70.4796 88.7954 68L92 74.1989C88.9211 75.852 86.6276 77.7593 85.1195 79.921C83.6115 82.0827 82.8575 84.753 82.8575 87.9319L83.423 96.7057L78.4276 89.9346C79.2444 89.2352 80.0927 88.6948 80.9724 88.3134C81.8521 87.8683 82.7946 87.6458 83.8 87.6458C85.8736 87.6458 87.6329 88.3134 89.0782 89.6485C90.5234 90.9201 91.246 92.7003 91.246 94.9891C91.246 97.4051 90.5548 99.3442 89.1724 100.807C87.79 102.269 85.9992 103 83.8 103Z" fill="white"/>
<path d="M899.525 242L896 235.355C899.387 233.486 901.91 231.375 903.569 229.022C905.297 226.668 906.161 223.761 906.161 220.301L905.332 210.852L910.931 218.224C910.101 218.916 909.168 219.505 908.131 219.989C907.164 220.404 906.127 220.612 905.021 220.612C902.809 220.612 900.873 219.885 899.214 218.432C897.555 216.978 896.726 215.04 896.726 212.617C896.726 209.918 897.486 207.807 899.007 206.284C900.597 204.761 902.601 204 905.021 204C908.339 204 910.827 205.211 912.486 207.634C914.214 210.056 915.078 213.483 915.078 217.913C915.078 223.242 913.765 227.949 911.138 232.033C908.581 236.047 904.71 239.37 899.525 242ZM925.447 242L921.818 235.355C925.274 233.486 927.832 231.375 929.491 229.022C931.219 226.668 932.083 223.761 932.083 220.301L931.253 210.852L936.853 218.224C936.023 218.916 935.09 219.505 934.053 219.989C933.085 220.404 932.048 220.612 930.942 220.612C928.73 220.612 926.795 219.885 925.136 218.432C923.477 216.978 922.647 215.04 922.647 212.617C922.647 209.918 923.408 207.807 924.929 206.284C926.518 204.761 928.523 204 930.942 204C934.26 204 936.749 205.211 938.408 207.634C940.136 210.056 941 213.483 941 217.913C941 223.242 939.687 227.949 937.06 232.033C934.502 236.047 930.631 239.37 925.447 242Z" fill="white"/>
<path d="M1505.62 145.302V80.5167C1505.62 70.8463 1497.72 63 1487.97 63C1478.23 63 1470.32 70.8383 1470.32 80.5167V145.302H1443.3C1408.4 145.302 1380.19 173.804 1381.02 208.638C1381.78 240.955 1407.96 267.521 1440.5 268.939C1475.26 270.452 1504.06 243.679 1505.54 209.865H1505.62V180.328H1592V145.302H1505.62ZM1470.29 209.036C1469.29 223.415 1456.89 234.678 1442 233.985C1427.99 233.332 1416.67 221.869 1416.26 207.961C1415.82 192.762 1428.1 180.304 1443.3 180.304H1470.32V205.038C1470.32 205.117 1470.29 205.205 1470.28 205.284C1470.22 205.906 1470.18 206.527 1470.18 207.164C1470.18 207.802 1470.21 208.431 1470.28 209.044L1470.29 209.036Z" fill="#FF4747"/>
<defs>
<linearGradient id="paint0_linear_2209_2" x1="0" y1="165.5" x2="1920" y2="165.5" gradientUnits="userSpaceOnUse">
<stop stop-color="#FF4747"/>
<stop offset="1" stop-color="white"/>
</linearGradient>
</defs>
</svg>
