<svg width="105" height="163" viewBox="0 0 105 163" fill="none" xmlns="http://www.w3.org/2000/svg">
<path fill-rule="evenodd" clip-rule="evenodd" d="M103.831 56.7063L51.9153 0L0 56.7063H29.773V86.4096H74.0579V56.7063H103.831Z" fill="#FF4747"/>
<path d="M2.77051 108.012C2.77051 103.836 6.15561 100.451 10.3313 100.451C14.5071 100.451 17.8922 103.836 17.8922 108.012V162.018H2.77051V108.012Z" fill="#FF4747"/>
<rect x="41.6543" y="149.057" width="12.9614" height="23.7626" transform="rotate(90 41.6543 149.057)" fill="#FF4747"/>
<path d="M58.1864 162.018L38.6664 108.879C36.9713 104.264 40.3867 99.3711 45.3029 99.3711C48.2589 99.3711 50.9029 101.21 51.9313 103.982L67.0374 144.69L81.6808 104.162C82.7195 101.287 85.4485 99.3711 88.5052 99.3711C93.5508 99.3711 97.0561 104.393 95.3164 109.129L75.8883 162.018H58.1864Z" fill="#FF4747"/>
<circle cx="97.8206" cy="155.537" r="6.48072" fill="#FF4747"/>
</svg>
