<svg width="50" height="35" viewBox="0 0 50 35" fill="none" xmlns="http://www.w3.org/2000/svg">
<path d="M39.623 15.7701C39.623 8.12193 33.0533 1.92188 24.9492 1.92188C16.8451 1.92188 10.2754 8.12193 10.2754 15.7701" stroke="#AAAAAA" stroke-width="2" stroke-linecap="round"/>
<path d="M39.6218 33.262C44.3137 33.262 48.1172 29.3462 48.1172 24.5158C48.1172 19.6854 44.3137 15.7695 39.6218 15.7695" stroke="#AAAAAA" stroke-width="2" stroke-linecap="round"/>
<path d="M10.2747 15.7702C5.5828 15.7702 1.7793 19.686 1.7793 24.5165C1.7793 29.3469 5.5828 33.2627 10.2747 33.2627" stroke="#AAAAAA" stroke-width="2" stroke-linecap="round"/>
<path d="M23.9473 33.2627C23.9473 33.815 24.395 34.2627 24.9473 34.2627C25.4996 34.2627 25.9473 33.815 25.9473 33.2627L23.9473 33.2627ZM25.6544 20.1651C25.2638 19.7746 24.6307 19.7746 24.2402 20.1651L17.8762 26.5291C17.4857 26.9196 17.4857 27.5527 17.8762 27.9433C18.2667 28.3338 18.8999 28.3338 19.2904 27.9433L24.9473 22.2864L30.6041 27.9433C30.9946 28.3338 31.6278 28.3338 32.0183 27.9433C32.4089 27.5527 32.4089 26.9196 32.0183 26.5291L25.6544 20.1651ZM25.9473 33.2627L25.9473 20.8722L23.9473 20.8722L23.9473 33.2627L25.9473 33.2627Z" fill="#AAAAAA"/>
</svg>
