<svg width="18" height="18" viewBox="0 0 18 18" fill="none" xmlns="http://www.w3.org/2000/svg">
<path fill-rule="evenodd" clip-rule="evenodd" d="M2.45453 15.1361C1.55079 14.2324 1.55079 12.7671 2.45453 11.8634L6.5454 7.77253C7.44913 6.8688 8.91437 6.8688 9.8181 7.77253C9.93107 7.88549 10.1142 7.88549 10.2272 7.77253C10.3402 7.65956 10.3402 7.47641 10.2272 7.36344C9.09753 6.23378 7.26598 6.23378 6.13632 7.36344L2.04544 11.4543C0.915774 12.584 0.915774 14.4155 2.04544 15.5452C3.1751 16.6749 5.00665 16.6749 6.13632 15.5452L8.18175 13.4998C8.29472 13.3868 8.29472 13.2036 8.18175 13.0907C8.06879 12.9777 7.88563 12.9777 7.77267 13.0907L5.72723 15.1361C4.8235 16.0398 3.35826 16.0398 2.45453 15.1361Z" fill="#767676" stroke="#767676"/>
<path fill-rule="evenodd" clip-rule="evenodd" d="M15.5455 2.45447C16.4492 3.3582 16.4492 4.82344 15.5455 5.72717L11.4546 9.81805C10.5509 10.7218 9.08563 10.7218 8.1819 9.81805C8.06893 9.70508 7.88577 9.70508 7.77281 9.81805C7.65984 9.93101 7.65984 10.1142 7.77281 10.2271C8.90247 11.3568 10.734 11.3568 11.8637 10.2271L15.9546 6.13626C17.0842 5.00659 17.0842 3.17505 15.9546 2.04538C14.8249 0.915717 12.9933 0.915717 11.8637 2.04538L9.81825 4.09082C9.70528 4.20379 9.70528 4.38694 9.81825 4.49991C9.93121 4.61287 10.1144 4.61287 10.2273 4.49991L12.2728 2.45447C13.1765 1.55074 14.6417 1.55074 15.5455 2.45447Z" fill="#767676" stroke="#767676"/>
</svg>
