<svg width="18" height="17" viewBox="0 0 18 17" fill="none" xmlns="http://www.w3.org/2000/svg">
<path fill-rule="evenodd" clip-rule="evenodd" d="M14.5823 1.33418H3.41772C2.28519 1.33418 1.36709 2.23017 1.36709 3.33544V13.6646C1.36709 14.7698 2.28519 15.6658 3.41772 15.6658H14.5823C15.7148 15.6658 16.6329 14.7698 16.6329 13.6646V3.33544C16.6329 2.23018 15.7148 1.33418 14.5823 1.33418ZM3.41772 0C1.53017 0 0 1.49333 0 3.33544V13.6646C0 15.5067 1.53017 17 3.41772 17H14.5823C16.4698 17 18 15.5067 18 13.6646V3.33544C18 1.49333 16.4698 0 14.5823 0H3.41772Z" fill="#767676"/>
<path d="M5.49263 11.3286C5.73288 10.8905 6.26712 10.8905 6.50737 11.3286L7.89849 13.8657C8.16516 14.352 7.87531 15 7.39112 15H4.60888C4.12469 15 3.83484 14.352 4.10151 13.8657L5.49263 11.3286Z" fill="#767676"/>
<path d="M10.3743 8.36333C10.6644 7.87889 11.3356 7.87889 11.6257 8.36333L14.8851 13.8075C15.1952 14.3255 14.8413 15 14.2594 15L7.74062 15C7.15869 15 6.80482 14.3255 7.11495 13.8075L10.3743 8.36333Z" fill="#767676"/>
</svg>
