<svg width="44" height="36" viewBox="0 0 44 36" fill="none" xmlns="http://www.w3.org/2000/svg">
<mask id="path-1-inside-1_1490_2900" fill="white">
<rect y="9.13281" width="36.4171" height="26.1748" rx="1"/>
</mask>
<rect y="9.13281" width="36.4171" height="26.1748" rx="1" stroke="#767676" stroke-width="6" mask="url(#path-1-inside-1_1490_2900)"/>
<mask id="path-2-outside-2_1490_2900" maskUnits="userSpaceOnUse" x="8.24023" y="-1" width="36" height="29" fill="black">
<rect fill="white" x="8.24023" y="-1" width="36" height="29"/>
<path fill-rule="evenodd" clip-rule="evenodd" d="M40.7503 14.2987C41.7321 13.4984 41.7321 11.9985 40.7503 11.1982L30.0217 2.45352C28.7152 1.38861 26.7581 2.31827 26.7581 4.00379V7.88108C20.1717 10.0122 10.672 15.6658 10.2402 26.461C14.7129 18.7354 21.9763 17.1162 26.7581 17.3449V21.4931C26.7581 23.1786 28.7152 24.1083 30.0217 23.0434L40.7503 14.2987Z"/>
</mask>
<path fill-rule="evenodd" clip-rule="evenodd" d="M40.7503 14.2987C41.7321 13.4984 41.7321 11.9985 40.7503 11.1982L30.0217 2.45352C28.7152 1.38861 26.7581 2.31827 26.7581 4.00379V7.88108C20.1717 10.0122 10.672 15.6658 10.2402 26.461C14.7129 18.7354 21.9763 17.1162 26.7581 17.3449V21.4931C26.7581 23.1786 28.7152 24.1083 30.0217 23.0434L40.7503 14.2987Z" fill="#767676"/>
<path d="M40.7503 11.1982L39.4867 12.7485V12.7485L40.7503 11.1982ZM40.7503 14.2987L42.0139 15.849L40.7503 14.2987ZM30.0217 2.45352L31.2853 0.903254V0.903254L30.0217 2.45352ZM26.7581 7.88108L27.3738 9.78395L28.7581 9.33604V7.88108H26.7581ZM10.2402 26.461L8.24183 26.3811L11.9711 27.4631L10.2402 26.461ZM26.7581 17.3449H28.7581V15.4382L26.8536 15.3471L26.7581 17.3449ZM30.0217 23.0434L28.7581 21.4931L30.0217 23.0434ZM39.4867 12.7485L39.4867 12.7485L42.0139 15.849C43.9776 14.2484 43.9776 11.2485 42.0139 9.64793L39.4867 12.7485ZM28.7581 4.00379L39.4867 12.7485L42.0139 9.64793L31.2853 0.903254L28.7581 4.00379ZM28.7581 4.00379V4.00379L31.2853 0.903254C28.6723 -1.22656 24.7581 0.632745 24.7581 4.00379H28.7581ZM28.7581 7.88108V4.00379H24.7581V7.88108H28.7581ZM12.2386 26.5409C12.6175 17.0702 20.99 11.8495 27.3738 9.78395L26.1424 5.97821C19.3534 8.17487 8.72662 14.2614 8.24183 26.3811L12.2386 26.5409ZM26.8536 15.3471C21.573 15.0946 13.4669 16.8959 8.50938 25.4589L11.9711 27.4631C15.959 20.5749 22.3795 19.1377 26.6625 19.3426L26.8536 15.3471ZM28.7581 21.4931V17.3449H24.7581V21.4931H28.7581ZM28.7581 21.4931L28.7581 21.4931H24.7581C24.7581 24.8642 28.6723 26.7235 31.2853 24.5937L28.7581 21.4931ZM39.4867 12.7485L28.7581 21.4931L31.2853 24.5937L42.0139 15.849L39.4867 12.7485Z" fill="white" mask="url(#path-2-outside-2_1490_2900)"/>
</svg>
