<svg width="40" height="40" viewBox="0 0 40 40" fill="none" xmlns="http://www.w3.org/2000/svg">
<rect x="1.5" y="1.5" width="37" height="37" rx="18.5" stroke="#FF4747" stroke-width="3"/>
<path fill-rule="evenodd" clip-rule="evenodd" d="M19.4805 10.7693C19.4805 10.3444 19.8249 10 20.2498 10C20.6747 10 21.0191 10.3444 21.0191 10.7693V18.9807H29.2307C29.6556 18.9807 30 19.3251 30 19.75C30 20.1749 29.6556 20.5193 29.2307 20.5193L21.0191 20.5193V28.7307C21.0191 29.1556 20.6747 29.5 20.2498 29.5C19.8249 29.5 19.4805 29.1556 19.4805 28.7307V20.5193L11.2693 20.5193C10.8444 20.5193 10.5 20.1749 10.5 19.75C10.5 19.3251 10.8444 18.9807 11.2693 18.9807L19.4805 18.9807V10.7693Z" fill="#FF4747" stroke="#FF4747"/>
</svg>
