<svg width="46" height="46" viewBox="0 0 46 46" fill="none" xmlns="http://www.w3.org/2000/svg">
<path d="M32.1156 33.8844L33.8844 32.1156L24.25 22.4794V10.5H21.75V23.5194L32.1156 33.8844ZM23.0081 45.5C19.8969 45.5 16.9717 44.9096 14.2325 43.7288C11.4937 42.5479 9.11125 40.9454 7.085 38.9212C5.05875 36.8971 3.45479 34.5167 2.27312 31.78C1.09104 29.0438 0.5 26.1198 0.5 23.0081C0.5 19.8969 1.09042 16.9717 2.27125 14.2325C3.45208 11.4937 5.05458 9.11125 7.07875 7.085C9.10292 5.05875 11.4833 3.45479 14.22 2.27312C16.9562 1.09104 19.8802 0.5 22.9919 0.5C26.1031 0.5 29.0283 1.09042 31.7675 2.27125C34.5063 3.45209 36.8888 5.05458 38.915 7.07875C40.9412 9.10292 42.5452 11.4833 43.7269 14.22C44.909 16.9563 45.5 19.8802 45.5 22.9919C45.5 26.1031 44.9096 29.0283 43.7287 31.7675C42.5479 34.5062 40.9454 36.8888 38.9212 38.915C36.8971 40.9412 34.5167 42.5452 31.78 43.7269C29.0437 44.909 26.1198 45.5 23.0081 45.5ZM23 43C28.5417 43 33.2604 41.0521 37.1562 37.1562C41.0521 33.2604 43 28.5417 43 23C43 17.4583 41.0521 12.7396 37.1562 8.84375C33.2604 4.94792 28.5417 3 23 3C17.4583 3 12.7396 4.94792 8.84375 8.84375C4.94792 12.7396 3 17.4583 3 23C3 28.5417 4.94792 33.2604 8.84375 37.1562C12.7396 41.0521 17.4583 43 23 43Z" fill="#FF4747"/>
</svg>
