<svg width="136" height="43" viewBox="0 0 136 43" fill="none" xmlns="http://www.w3.org/2000/svg">
<path d="M55.3697 18.767C57.2307 18.767 58.7394 17.2558 58.7394 15.3917C58.7394 13.5275 57.2307 12.0164 55.3697 12.0164C53.5087 12.0164 52 13.5275 52 15.3917C52 17.2558 53.5087 18.767 55.3697 18.767Z" fill="black"/>
<path d="M55.3697 20.8835C57.2294 20.8835 58.7394 22.3961 58.7394 24.2589V42.5043H52V24.2589C52 22.3976 53.51 20.8835 55.3697 20.8835Z" fill="black"/>
<path d="M78.2535 18.7685H75.5877C75.3907 18.7685 75.2304 18.608 75.2304 18.4107V12.0164H68.4895V18.4107C68.4895 18.608 68.3292 18.7685 68.1322 18.7685H64.3701V25.5207H68.1322C68.3292 25.5207 68.4895 25.6813 68.4895 25.8786V35.3974C68.4895 39.3233 71.6668 42.5075 75.5877 42.5075H78.9757V35.7553H76.571C75.8305 35.7553 75.2304 35.1543 75.2304 34.4125V25.8786C75.2304 25.6813 75.3907 25.5207 75.5877 25.5207H78.2535C80.1147 25.5207 81.6232 24.0097 81.6232 22.1454C81.6232 20.2811 80.1147 18.7701 78.2535 18.7701V18.7685Z" fill="black"/>
<path d="M104.551 0C102.69 0 101.182 1.51102 101.182 3.37533V19.9308C99.5251 19.1294 97.6532 18.7027 95.676 18.7608C89.4145 18.9459 84.3302 24.0708 84.1821 30.3428C84.0248 37.0323 89.3916 42.5044 96.0333 42.5044C97.8777 42.5044 99.6244 42.0823 101.182 41.3283V42.5044H107.923V3.37533C107.923 1.51102 106.414 0 104.553 0H104.551ZM96.3677 35.7766C93.2606 35.9739 90.6986 33.4076 90.8955 30.2954C91.0574 27.7291 93.1369 25.6461 95.6989 25.484C98.806 25.2867 101.368 27.853 101.171 30.9652C101.009 33.5315 98.9297 35.6145 96.3677 35.7766Z" fill="black"/>
<path d="M123.859 18.7595C117.665 18.9048 112.573 23.8951 112.301 30.0952C112.005 36.8397 117.329 42.4113 123.976 42.5045C125.887 42.5305 127.519 41.0379 127.516 39.1246C127.513 37.3842 126.196 35.9542 124.506 35.7738C124.387 35.7615 124.268 35.7539 124.146 35.7539C124.024 35.7539 123.903 35.76 123.786 35.7738C121.03 35.5826 118.871 33.2197 119.004 30.3812C119.129 27.7124 121.326 25.5545 123.992 25.4765C126.905 25.3924 129.293 27.7323 129.293 30.6305V42.5061H136V30.6305C136 23.9777 130.537 18.602 123.859 18.7595Z" fill="black"/>
<path d="M24.2144 18.981V6.4013C24.2144 4.52355 22.68 3 20.7855 3C18.8925 3 17.3567 4.522 17.3567 6.4013V18.981H12.1066C5.3237 18.981 -0.157164 24.5153 0.0034418 31.2792C0.151573 37.5544 5.2395 42.7128 11.5608 42.9881C18.3156 43.282 23.9119 38.0834 24.1988 31.5174H24.2144V25.7821H41V18.981H24.2144ZM17.3504 31.3566C17.1555 34.1484 14.7464 36.3356 11.8524 36.201C9.13146 36.0742 6.93132 33.8484 6.85179 31.1478C6.76603 28.1966 9.15173 25.7774 12.1066 25.7774H17.3567V30.5801C17.3551 30.5956 17.3504 30.6126 17.3489 30.628C17.3364 30.7487 17.3286 30.8693 17.3286 30.9931C17.3286 31.1168 17.3348 31.239 17.3489 31.3581L17.3504 31.3566Z" fill="#FF4747"/>
</svg>
