<svg width="298" height="151" viewBox="0 0 298 151" fill="none" xmlns="http://www.w3.org/2000/svg">
<path d="M12.1435 66.8906C18.7369 66.8906 24.0819 61.5367 24.0819 54.9322C24.0819 48.3278 18.7369 42.9739 12.1435 42.9739C5.55009 42.9739 0.205078 48.3278 0.205078 54.9322C0.205078 61.5367 5.55009 66.8906 12.1435 66.8906Z" fill="black"/>
<path d="M12.1435 74.3896C18.7321 74.3896 24.0819 79.7484 24.0819 86.348V150.989H0.205078V86.348C0.205078 79.7538 5.55492 74.3896 12.1435 74.3896Z" fill="black"/>
<path d="M93.2194 66.896H83.7747C83.0769 66.896 82.5089 66.3271 82.5089 65.6281V42.9739H58.6266V65.6281C58.6266 66.3271 58.0587 66.896 57.3609 66.896H44.0322V90.8182H57.3609C58.0587 90.8182 58.6266 91.3871 58.6266 92.0861V125.81C58.6266 139.719 69.8835 151 83.7747 151H95.778V127.078H87.2583C84.6348 127.078 82.5089 124.949 82.5089 122.321V92.0861C82.5089 91.3871 83.0769 90.8182 83.7747 90.8182H93.2194C99.8134 90.8182 105.158 85.4648 105.158 78.8598C105.158 72.2548 99.8134 66.9014 93.2194 66.9014V66.896Z" fill="black"/>
<path d="M186.388 0.401855C179.794 0.401855 174.45 5.75522 174.45 12.3602V71.0142C168.58 68.175 161.949 66.6632 154.943 66.8691C132.76 67.5247 114.747 85.6817 114.222 107.903C113.665 131.603 132.679 150.989 156.209 150.989C162.744 150.989 168.932 149.494 174.45 146.823V150.989H198.332V12.3602C198.332 5.75522 192.987 0.401855 186.393 0.401855H186.388ZM157.394 127.154C146.386 127.853 137.309 118.761 138.007 107.735C138.58 98.6425 145.948 91.2627 155.025 90.6883C166.033 89.9894 175.109 99.0814 174.412 110.108C173.838 119.2 166.471 126.58 157.394 127.154Z" fill="black"/>
<path d="M254.79 66.8638C232.845 67.3785 214.804 85.0587 213.842 107.025C212.792 130.92 231.655 150.659 255.207 150.99C261.974 151.082 267.757 145.793 267.746 139.015C267.735 132.849 263.072 127.783 257.084 127.143C256.662 127.1 256.24 127.073 255.807 127.073C255.375 127.073 254.947 127.094 254.531 127.143C244.767 126.466 237.118 118.095 237.589 108.038C238.032 98.583 245.816 90.9376 255.261 90.6613C265.582 90.3633 274.042 98.6534 274.042 108.921V150.995H297.805V108.921C297.805 85.3513 278.451 66.3057 254.79 66.8638Z" fill="black"/>
</svg>
