<svg width="85" height="83" viewBox="0 0 85 83" fill="none" xmlns="http://www.w3.org/2000/svg">
<path d="M50.2005 33.1606V7.0577C50.2005 3.16136 47.0196 0 43.0919 0C39.1675 0 35.9833 3.15815 35.9833 7.0577V33.1606H25.099C11.0369 33.1606 -0.325828 44.6442 0.00713545 58.6794C0.314237 71.7004 10.8624 82.4041 23.9675 82.9754C37.9714 83.5852 49.5734 72.798 50.1682 59.1737H50.2005V47.2728H85V33.1606H50.2005ZM35.9704 58.8399C35.5663 64.633 30.5719 69.1713 24.5721 68.892C18.9311 68.6289 14.3698 64.0104 14.2049 58.4066C14.0271 52.2829 18.9731 47.2632 25.099 47.2632H35.9833V57.2287C35.9801 57.2608 35.9704 57.2961 35.9671 57.3282C35.9413 57.5785 35.9251 57.8289 35.9251 58.0856C35.9251 58.3424 35.9381 58.596 35.9671 58.8431L35.9704 58.8399Z" fill="#FF4747"/>
</svg>
