<svg width="40" height="40" viewBox="0 0 40 40" fill="none" xmlns="http://www.w3.org/2000/svg">
<circle cx="20" cy="20" r="20" fill="#FF4747"/>
<path fill-rule="evenodd" clip-rule="evenodd" d="M29.229 14.4266C29.7388 13.7712 29.6207 12.8266 28.9653 12.3168C28.3098 11.807 27.3652 11.9251 26.8554 12.5805L17.501 24.6076L12.6776 18.5783C12.1588 17.9299 11.2127 17.8248 10.5643 18.3435C9.91592 18.8622 9.8108 19.8083 10.3295 20.4567L16.3434 27.9741C16.5204 28.1953 16.747 28.3532 16.9946 28.4448C17.3461 28.5747 17.7398 28.5709 18.0933 28.4241C18.3163 28.332 18.52 28.1849 18.6826 27.9856C18.6924 27.9736 18.702 27.9614 18.7114 27.9492L29.229 14.4266Z" fill="white"/>
</svg>
