<svg width="26" height="26" viewBox="0 0 26 26" fill="none" xmlns="http://www.w3.org/2000/svg">
<circle cx="13" cy="13" r="12" fill="white" stroke="#FFADAD" stroke-width="2"/>
<path fill-rule="evenodd" clip-rule="evenodd" d="M18.8217 9.36567C19.1086 8.99679 19.0422 8.46518 18.6733 8.17828C18.3044 7.89137 17.7728 7.95783 17.4859 8.3267L12.2214 15.0954L9.50689 11.7022C9.21496 11.3373 8.68248 11.2781 8.31757 11.5701C7.95266 11.862 7.8935 12.3945 8.18543 12.7594L11.5601 16.9778C11.5789 17.0021 11.5992 17.0256 11.6209 17.0481C11.7013 17.1319 11.7956 17.1959 11.8974 17.2394C12.118 17.3337 12.3731 17.3316 12.5952 17.2254C12.6851 17.1826 12.7685 17.1233 12.8406 17.0482C12.8654 17.0225 12.8883 16.9955 12.9092 16.9675L18.8217 9.36567Z" fill="#CDCDCD"/>
</svg>
