<svg width="80" height="80" viewBox="0 0 80 80" fill="none" xmlns="http://www.w3.org/2000/svg">
<rect width="80" height="80" rx="40" fill="#FF4747"/>
<path d="M25.4167 54.5833H28.3854L48.75 34.2188L45.7812 31.25L25.4167 51.6146V54.5833ZM21.25 58.75V49.8958L48.75 22.4479C49.1667 22.066 49.6267 21.7708 50.1302 21.5625C50.6337 21.3542 51.1632 21.25 51.7188 21.25C52.2743 21.25 52.8125 21.3542 53.3333 21.5625C53.8542 21.7708 54.3056 22.0833 54.6875 22.5L57.5521 25.4167C57.9688 25.7986 58.2726 26.25 58.4635 26.7708C58.6545 27.2917 58.75 27.8125 58.75 28.3333C58.75 28.8889 58.6545 29.4184 58.4635 29.9219C58.2726 30.4253 57.9688 30.8854 57.5521 31.3021L30.1042 58.75H21.25ZM47.2396 32.7604L45.7812 31.25L48.75 34.2188L47.2396 32.7604Z" fill="white"/>
</svg>
