<svg width="33" height="38" viewBox="0 0 33 38" fill="none" xmlns="http://www.w3.org/2000/svg">
<g filter="url(#filter0_d_630_334)">
<path d="M7.55664 29.9444V6.61108H22.3344L25.8344 10.8889V29.9444H7.55664Z" fill="white"/>
<path d="M22.334 11.2778V6.61108L25.834 10.5V11.2778H22.334Z" fill="#E6E6E6"/>
<rect x="6" y="22.5554" width="21" height="9.33333" fill="#FF4747"/>
<path d="M21.8341 25.5452V26.0254H21.0337V29.1671H20.4534V26.0254H19.873V25.5452H20.4534V25.0516C20.4534 24.4646 20.8469 24.1111 21.4872 24.1111C21.6273 24.1111 21.7941 24.1311 21.9141 24.1511V24.6647C21.7941 24.6447 21.6873 24.638 21.614 24.638C21.2138 24.638 21.0337 24.8048 21.0337 25.1783V25.5452H21.8341Z" fill="white"/>
<path d="M17.5467 29.2405C16.6462 29.2405 16.0059 28.5135 16.0059 27.3662C16.0059 26.2189 16.6462 25.4985 17.5534 25.4985C18.2537 25.4985 18.4805 25.9254 18.6006 26.1188H18.6406V24.3379H19.2209V29.1671H18.6606V28.6135H18.6006C18.4738 28.8136 18.2404 29.2405 17.5467 29.2405ZM17.6267 28.7269C18.2871 28.7269 18.6606 28.1666 18.6606 27.3528C18.6606 26.5524 18.3004 26.0121 17.6267 26.0121C16.933 26.0121 16.5862 26.5991 16.5862 27.3528C16.5862 28.1266 16.9397 28.7269 17.6267 28.7269Z" fill="white"/>
<path d="M12.2227 30.5276V25.545H12.7763V26.1186H12.843C12.9631 25.9252 13.1898 25.4983 13.8902 25.4983C14.7974 25.4983 15.431 26.2187 15.431 27.366C15.431 28.5132 14.7974 29.2403 13.8969 29.2403C13.2032 29.2403 12.9631 28.8134 12.843 28.6133H12.7963V30.5276H12.2227ZM12.783 27.3526C12.783 28.1664 13.1498 28.7267 13.8168 28.7267C14.5039 28.7267 14.8574 28.1264 14.8574 27.3526C14.8574 26.5989 14.5105 26.0119 13.8168 26.0119C13.1365 26.0119 12.783 26.5522 12.783 27.3526Z" fill="white"/>
</g>
<defs>
<filter id="filter0_d_630_334" x="0" y="0.611084" width="33" height="37.2776" filterUnits="userSpaceOnUse" color-interpolation-filters="sRGB">
<feFlood flood-opacity="0" result="BackgroundImageFix"/>
<feColorMatrix in="SourceAlpha" type="matrix" values="0 0 0 0 0 0 0 0 0 0 0 0 0 0 0 0 0 0 127 0" result="hardAlpha"/>
<feOffset/>
<feGaussianBlur stdDeviation="3"/>
<feComposite in2="hardAlpha" operator="out"/>
<feColorMatrix type="matrix" values="0 0 0 0 0 0 0 0 0 0 0 0 0 0 0 0 0 0 0.25 0"/>
<feBlend mode="normal" in2="BackgroundImageFix" result="effect1_dropShadow_630_334"/>
<feBlend mode="normal" in="SourceGraphic" in2="effect1_dropShadow_630_334" result="shape"/>
</filter>
</defs>
</svg>
