<svg width="11" height="10" viewBox="0 0 11 10" fill="none" xmlns="http://www.w3.org/2000/svg">
<path fill-rule="evenodd" clip-rule="evenodd" d="M10.8218 1.36567C11.1087 0.996794 11.0422 0.465181 10.6733 0.178278C10.3045 -0.108625 9.77284 -0.0421735 9.48594 0.326702L4.22143 7.09536L1.50691 3.70221C1.21498 3.3373 0.682505 3.27814 0.317594 3.57006C-0.0473168 3.86199 -0.10648 4.39447 0.185448 4.75938L3.56015 8.97775C3.57892 9.00211 3.59917 9.02561 3.62088 9.04812C3.70128 9.13191 3.79567 9.19592 3.8974 9.23942C4.118 9.33373 4.37315 9.33156 4.5952 9.22538C4.68514 9.18257 4.76856 9.1233 4.84064 9.04819C4.86542 9.0225 4.88829 8.99553 4.90924 8.96747L10.8218 1.36567Z" fill="#545454"/>
</svg>
