<svg width="38" height="38" viewBox="0 0 38 38" fill="none" xmlns="http://www.w3.org/2000/svg">
<circle cx="19" cy="19" r="19" fill="#474747"/>
<path fill-rule="evenodd" clip-rule="evenodd" d="M27.9556 14.8883C28.4653 14.2328 28.3473 13.2882 27.6918 12.7784C27.0364 12.2687 26.0918 12.3867 25.582 13.0422L16.2276 25.0693L11.4041 19.04C10.8854 18.3916 9.93927 18.2864 9.29088 18.8051C8.64249 19.3239 8.53736 20.27 9.05608 20.9184L15.07 28.4358C15.247 28.657 15.4737 28.815 15.7213 28.9065C16.0727 29.0364 16.4662 29.0326 16.8197 28.8859C17.0429 28.7937 17.2468 28.6464 17.4095 28.4469C17.4192 28.435 17.4287 28.423 17.4379 28.4109L27.9556 14.8883Z" fill="white"/>
</svg>
