<svg width="40" height="40" viewBox="0 0 40 40" fill="none" xmlns="http://www.w3.org/2000/svg">
<circle cx="20" cy="20" r="20" fill="#C3C3C3"/>
<path fill-rule="evenodd" clip-rule="evenodd" d="M27.8511 14.2938C28.4369 13.708 28.4369 12.7583 27.8511 12.1725C27.2653 11.5867 26.3155 11.5867 25.7298 12.1725L19.9002 18.0021L14.2696 12.3715C13.6839 11.7857 12.7341 11.7857 12.1483 12.3715C11.5625 12.9573 11.5625 13.907 12.1483 14.4928L17.7789 20.1234L12.1483 25.7539C11.5625 26.3397 11.5625 27.2895 12.1483 27.8752C12.7341 28.461 13.6839 28.461 14.2696 27.8752L19.9002 22.2447L25.7298 28.0743C26.3155 28.66 27.2653 28.66 27.8511 28.0743C28.4369 27.4885 28.4369 26.5387 27.8511 25.9529L22.0215 20.1234L27.8511 14.2938Z" fill="white"/>
</svg>
