<svg width="22" height="22" viewBox="0 0 22 22" fill="none" xmlns="http://www.w3.org/2000/svg">
<circle cx="11" cy="11" r="11" fill="#C3C3C3"/>
<path fill-rule="evenodd" clip-rule="evenodd" d="M16.8218 7.36567C17.1087 6.99679 17.0422 6.46518 16.6733 6.17828C16.3045 5.89137 15.7728 5.95783 15.4859 6.3267L10.2214 13.0954L7.50691 9.70221C7.21498 9.3373 6.68251 9.27814 6.31759 9.57006C5.95268 9.86199 5.89352 10.3945 6.18545 10.7594L9.56015 14.9778C9.57892 15.0021 9.59917 15.0256 9.62088 15.0481C9.70128 15.1319 9.79567 15.1959 9.8974 15.2394C10.118 15.3337 10.3732 15.3316 10.5952 15.2254C10.6851 15.1826 10.7686 15.1233 10.8406 15.0482C10.8654 15.0225 10.8883 14.9955 10.9092 14.9675L16.8218 7.36567Z" fill="white"/>
</svg>
