<svg width="44" height="54" viewBox="0 0 44 54" fill="none" xmlns="http://www.w3.org/2000/svg">
<path d="M1 50V4C1 2.34315 2.34314 1 4 1H31.5455L43 11.8333V50C43 51.6569 41.6569 53 40 53H4C2.34315 53 1 51.6569 1 50Z" stroke="#FF4747" stroke-width="2"/>
<path d="M32 1V13H43" stroke="#FF4747" stroke-width="2"/>
<path d="M20.0726 16.2096C17.9414 19.7515 22.2606 26.7482 26.7194 31.8481C28.8808 34.3203 31.8236 36.6318 35.0875 36.2712C38.9129 35.8487 30.0521 29.4996 20.7473 31.5776C9.27539 34.1395 5.90129 43.1064 11.9747 40.5445C22.7718 32.8586 24.138 9.45308 20.0726 16.2096Z" stroke="#FF4747" stroke-width="2"/>
</svg>
