<svg width="25" height="24" viewBox="0 0 25 24" fill="none" xmlns="http://www.w3.org/2000/svg">
<path d="M1 14V23H24V14" stroke="white" stroke-width="2" stroke-linecap="round"/>
<path d="M14 1C14 0.447715 13.5523 -2.41412e-08 13 0C12.4477 2.41412e-08 12 0.447715 12 1L14 1ZM12.2929 16.7071C12.6834 17.0976 13.3166 17.0976 13.7071 16.7071L20.0711 10.3431C20.4616 9.95262 20.4616 9.31946 20.0711 8.92893C19.6805 8.53841 19.0474 8.53841 18.6569 8.92893L13 14.5858L7.34315 8.92893C6.95262 8.53841 6.31946 8.53841 5.92893 8.92893C5.53841 9.31946 5.53841 9.95262 5.92893 10.3431L12.2929 16.7071ZM12 1L12 16L14 16L14 1L12 1Z" fill="white"/>
</svg>
