<svg width="19" height="23" viewBox="0 0 19 23" fill="none" xmlns="http://www.w3.org/2000/svg">
<path d="M1 18.3561V4C1 2.34315 2.34315 1 4 1H12.9574L17.4415 5.24085V18.3561C17.4415 20.013 16.0983 21.3561 14.4415 21.3561H4C2.34315 21.3561 1 20.0129 1 18.3561Z" stroke="#FF4747" stroke-width="1.5"/>
<path d="M13.1328 1V5.69756H17.4389" stroke="#FF4747" stroke-width="1.5"/>
<path d="M8.46733 6.95421C7.94456 7.82302 8.41323 9.22282 9.26553 10.6382C10.9595 13.4514 15.7563 14.2116 12.6347 13.1921C11.5506 12.8381 10.1543 12.6525 8.73147 12.9702C4.24062 13.9731 2.91978 17.4834 5.29729 16.4805C9.52397 13.4717 10.0588 4.3093 8.46733 6.95421Z" stroke="#FF4747" stroke-width="1.5"/>
</svg>
