<svg width="38" height="32" viewBox="0 0 38 32" fill="none" xmlns="http://www.w3.org/2000/svg">
<mask id="path-1-inside-1_3033_2426" fill="white">
<rect x="0.400391" y="8.83936" width="31.4364" height="22.5949" rx="0.863233"/>
</mask>
<rect x="0.400391" y="8.83936" width="31.4364" height="22.5949" rx="0.863233" stroke="black" stroke-width="5.1794" mask="url(#path-1-inside-1_3033_2426)"/>
<mask id="path-2-outside-2_3033_2426" maskUnits="userSpaceOnUse" x="7.24023" y="0.682373" width="31" height="24" fill="black">
<rect fill="white" x="7.24023" y="0.682373" width="31" height="24"/>
<path d="M23.498 4.41182C23.4981 2.95685 25.1876 2.15468 26.3154 3.07393L35.5771 10.6228C36.4242 11.3136 36.4243 12.6077 35.5771 13.2985L26.3154 20.8474C25.1877 21.7665 23.4982 20.9643 23.498 19.5095V15.9284C19.3702 15.7312 13.101 17.1291 9.24023 23.7976C9.61297 14.4793 17.8125 9.59933 23.498 7.75948V4.41182Z"/>
</mask>
<path d="M23.498 4.41182C23.4981 2.95685 25.1876 2.15468 26.3154 3.07393L35.5771 10.6228C36.4242 11.3136 36.4243 12.6077 35.5771 13.2985L26.3154 20.8474C25.1877 21.7665 23.4982 20.9643 23.498 19.5095V15.9284C19.3702 15.7312 13.101 17.1291 9.24023 23.7976C9.61297 14.4793 17.8125 9.59933 23.498 7.75948V4.41182Z" fill="black"/>
<path d="M23.498 4.41182L21.7716 4.41178V4.41182H23.498ZM26.3154 3.07393L25.2247 4.41217L25.2247 4.41219L26.3154 3.07393ZM35.5771 10.6228L36.6683 9.28483L36.6679 9.2845L35.5771 10.6228ZM35.5771 13.2985L36.6679 14.6368L36.6682 14.6365L35.5771 13.2985ZM26.3154 20.8474L27.4062 22.1856L27.4062 22.1856L26.3154 20.8474ZM23.498 19.5095H21.7716V19.5097L23.498 19.5095ZM23.498 15.9284H25.2245V14.2825L23.5805 14.2039L23.498 15.9284ZM9.24023 23.7976L7.51515 23.7286L10.7344 24.6626L9.24023 23.7976ZM23.498 7.75948L24.0296 9.40208L25.2245 9.0154V7.75948H23.498ZM23.498 4.41182L25.2245 4.41186L25.2247 4.41217L26.3154 3.07393L27.4062 1.73569C25.1512 -0.102363 21.7716 1.50112 21.7716 4.41178L23.498 4.41182ZM26.3154 3.07393L25.2247 4.41219L34.4864 11.961L35.5771 10.6228L36.6679 9.2845L27.4062 1.73567L26.3154 3.07393ZM35.5771 10.6228L34.486 11.9607L34.4861 11.9605L35.5771 13.2985L36.6682 14.6365C38.3626 13.2548 38.3624 10.6664 36.6683 9.28483L35.5771 10.6228ZM35.5771 13.2985L34.4864 11.9603L25.2247 19.5091L26.3154 20.8474L27.4062 22.1856L36.6679 14.6368L35.5771 13.2985ZM26.3154 20.8474L25.2247 19.5091L25.2245 19.5093L23.498 19.5095L21.7716 19.5097C21.7719 22.4198 25.151 24.0237 27.4062 22.1856L26.3154 20.8474ZM23.498 19.5095H25.2245V15.9284H23.498H21.7716V19.5095H23.498ZM23.498 15.9284L23.5805 14.2039C19.0221 13.9861 12.0254 15.5412 7.74611 22.9325L9.24023 23.7976L10.7344 24.6626C14.1766 18.7169 19.7184 17.4763 23.4156 17.6529L23.498 15.9284ZM9.24023 23.7976L10.9653 23.8666C11.2923 15.6916 18.5189 11.1854 24.0296 9.40208L23.498 7.75948L22.9665 6.11687C17.1061 8.01331 7.93362 13.267 7.51515 23.7286L9.24023 23.7976ZM23.498 7.75948H25.2245V4.41182H23.498H21.7716V7.75948H23.498Z" fill="white" mask="url(#path-2-outside-2_3033_2426)"/>
</svg>
