<svg width="41" height="40" viewBox="0 0 41 40" fill="none" xmlns="http://www.w3.org/2000/svg">
<path d="M24.2144 15.981V3.4013C24.2144 1.52355 22.68 0 20.7855 0C18.8925 0 17.3567 1.522 17.3567 3.4013V15.981H12.1066C5.3237 15.981 -0.157164 21.5153 0.0034418 28.2792C0.151573 34.5544 5.2395 39.7128 11.5608 39.9881C18.3156 40.282 23.9119 35.0834 24.1988 28.5174H24.2144V22.7821H41V15.981H24.2144ZM17.3504 28.3566C17.1555 31.1484 14.7464 33.3356 11.8524 33.201C9.13146 33.0742 6.93132 30.8484 6.85179 28.1478C6.76603 25.1966 9.15173 22.7774 12.1066 22.7774H17.3567V27.5801C17.3551 27.5956 17.3504 27.6126 17.3489 27.628C17.3364 27.7487 17.3286 27.8693 17.3286 27.9931C17.3286 28.1168 17.3348 28.239 17.3489 28.3581L17.3504 28.3566Z" fill="white"/>
</svg>
