<svg width="135" height="135" viewBox="0 0 135 135" fill="none" xmlns="http://www.w3.org/2000/svg">
<rect width="135" height="135" rx="30" fill="#FF4747"/>
<path d="M75.3817 58.5601V32.1427C75.3817 28.1995 72.1259 25 68.1058 25C64.0891 25 60.83 28.1962 60.83 32.1427V58.5601H49.6895C35.2966 58.5601 23.6665 70.1821 24.0073 84.3864C24.3216 97.5642 35.118 108.397 48.5315 108.975C62.8648 109.592 74.7398 98.6751 75.3486 84.8866H75.3817V72.8424H111V58.5601H75.3817ZM60.8167 84.5488C60.4031 90.4118 55.2912 95.0047 49.1502 94.7221C43.3765 94.4557 38.7079 89.7816 38.5392 84.1103C38.3572 77.9128 43.4195 72.8326 49.6895 72.8326H60.83V82.9182C60.8267 82.9507 60.8167 82.9864 60.8134 83.0189C60.787 83.2723 60.7704 83.5256 60.7704 83.7855C60.7704 84.0453 60.7837 84.3019 60.8134 84.552L60.8167 84.5488Z" fill="white"/>
</svg>
